<svg xmlns="http://www.w3.org/2000/svg" viewBox="0 0 512 512" role="img" aria-labelledby="title desc">
  <title id="title">FG terminal icon</title>
  <desc id="desc">Green FG monogram on a dark terminal background.</desc>
  <rect width="512" height="512" rx="112" fill="#030603"/>
  <rect x="36" y="36" width="440" height="440" rx="84" fill="none" stroke="#00ff66" stroke-width="12" opacity=".5"/>
  <path d="M128 152h142v42H176v54h84v42h-84v94h-48V152Zm170 0h94v42h-46c-35 0-56 19-56 59v6c0 43 21 65 57 65h20v-47h-38v-40h84v123c-22 7-45 11-70 11-66 0-103-40-103-111v-8c0-65 37-100 108-100Z" fill="#00ff66"/>
  <path d="M112 418h288" stroke="#73ffab" stroke-width="10" stroke-linecap="round" opacity=".72"/>
</svg>
